0
SECTION
2
HEADER
9
$INSUNITS
70
4
9
$ACADVER
1
AC1014
9
$HANDSEED
5
FFFF
0
ENDSEC
0
SECTION
2
TABLES
0
TABLE
2
VPORT
5
8
100
AcDbSymbolTable
0
ENDTAB
0
TABLE
2
LTYPE
5
5
100
AcDbSymbolTable
0
LTYPE
5
14
100
AcDbSymbolTableRecord
100
AcDbLinetypeTableRecord
2
BYBLOCK
70
0
0
LTYPE
5
15
100
AcDbSymbolTableRecord
100
AcDbLinetypeTableRecord
2
BYLAYER
70
0
0
LTYPE
5
16
100
AcDbSymbolTableRecord
100
AcDbLinetypeTableRecord
2
DASHED
70
0
3
Dashed __ __ __ __ __ __ __ __ __ __ __ __ __ _
72
65
73
2
40
0.75
49
0.5
74
0
49
-0.25
74
0
0
ENDTAB
0
TABLE
2
LAYER
5
2
100
AcDbSymbolTable
70
2
0
LAYER
5
50
100
AcDbSymbolTableRecord
100
AcDbLayerTableRecord
2
0
70
0
62
7
6
CONTINUOUS
0
ENDTAB
0
TABLE
2
STYLE
5
3
100
AcDbSymbolTable
70
1
0
STYLE
5
11
100
AcDbSymbolTableRecord
100
AcDbTextStyleTableRecord
2
STANDARD
70
0
0
ENDTAB
0
TABLE
2
VIEW
5
6
100
AcDbSymbolTable
70
0
0
ENDTAB
0
TABLE
2
UCS
5
7
100
AcDbSymbolTable
70
0
0
ENDTAB
0
TABLE
2
APPID
5
9
100
AcDbSymbolTable
70
2
0
APPID
5
12
100
AcDbSymbolTableRecord
100
AcDbRegAppTableRecord
2
ACAD
70
0
0
ENDTAB
0
TABLE
2
DIMSTYLE
5
A
100
AcDbSymbolTable
70
1
0
ENDTAB
0
TABLE
2
BLOCK_RECORD
5
1
100
AcDbSymbolTable
70
1
0
BLOCK_RECORD
5
1F
100
AcDbSymbolTableRecord
100
AcDbBlockTableRecord
2
*MODEL_SPACE
0
BLOCK_RECORD
5
1B
100
AcDbSymbolTableRecord
100
AcDbBlockTableRecord
2
*PAPER_SPACE
0
ENDTAB
0
ENDSEC
0
SECTION
2
BLOCKS
0
BLOCK
5
20
100
AcDbEntity
100
AcDbBlockBegin
2
*MODEL_SPACE
0
ENDBLK
5
21
100
AcDbEntity
100
AcDbBlockEnd
0
BLOCK
5
1C
100
AcDbEntity
100
AcDbBlockBegin
2
*PAPER_SPACE
0
ENDBLK
5
1D
100
AcDbEntity
100
AcDbBlockEnd
0
ENDSEC
0
SECTION
2
ENTITIES
0
POINT
5
100
100
AcDbEntity
8
0
100
AcDbPoint
10
169.00000251829624
20
-28.000000417232513
30
0
0
POINT
5
101
100
AcDbEntity
8
0
100
AcDbPoint
10
40.157002327566943
20
-33.078382215667006
30
0
0
POINT
5
102
100
AcDbEntity
8
0
100
AcDbPoint
10
40.055757417813837
20
-110.46784291856987
30
0
0
LWPOLYLINE
5
103
100
AcDbEntity
8
0
100
AcDbPolyline
90
17
43
0.0
10
41.34901188993626
20
-32.67803681335993
10
47.544218635426674
20
-30.715263845802852
10
53.87571208674308
20
-28.907817627816414
10
60.34865194006969
20
-27.257636557599277
10
66.9726675746348
20
-25.769346739670425
10
73.76262536998169
20
-24.451306746572826
10
80.7390769247743
20
-23.316260452819407
10
87.92852307542415
20
-22.381763798848343
10
95.36358283796854
20
-21.670516815438944
10
103.08269182947232
20
-21.210243253145546
10
111.1294087844281
20
-21.03319342403548
10
119.55158948240866
20
-21.17552989383409
10
128.39976752539945
20
-21.676042898939645
10
137.72458254048465
20
-22.5740607740833
10
147.57397217673022
20
-23.907162412817783
10
157.9893473878386
20
-25.708054722780133
10
169.00000251829618
20
-28.000000417232513
0
LWPOLYLINE
5
104
100
AcDbEntity
8
0
100
AcDbPolyline
90
12
43
0.0
10
39.996709582539786
20
-34.32389307511817
10
39.1022288537348
20
-42.04352085710711
10
38.35413788123056
20
-50.028805759955766
10
37.77876229403423
20
-58.32752155543474
10
37.42376189261164
20
-67.02615766529556
10
37.35907914814839
20
-76.25164042640006
10
37.462811128823326
20
-81.11131749475473
10
37.673479693715564
20
-86.16505503425164
10
38.00349433243921
20
-91.43537285341837
10
38.46471456676309
20
-96.9437927204956
10
39.067642771273455
20
-102.70937355507797
10
39.820202481950886
20
-108.74649439439366
0
LWPOLYLINE
5
105
100
AcDbEntity
8
0
100
AcDbPolyline
90
88
43
0.0
10
41.78595767311929
20
-110.48032420965477
10
47.46855247890656
20
-110.54791370859783
10
52.93260722997324
20
-110.65532933609617
10
58.17815966160929
20
-110.80257971735044
10
63.20534753594409
20
-110.98968070270928
10
68.0144730292218
20
-111.21665663805636
10
72.60606773732536
20
-111.48354170891456
10
76.98095783809048
20
-111.7903812944844
10
81.14032900344188
20
-112.13723319477317
10
85.08579095248935
20
-112.52416867763232
10
88.81944212718136
20
-112.95127352395491
10
92.34393588856777
20
-113.41864935064709
10
95.66254832593175
20
-113.92641522807627
10
98.77924580378313
20
-114.4747091966722
10
101.69874975342232
20
-115.06368899231106
10
106.96921583244563
20
-116.36443651924533
10
111.52929047744574
20
-117.83033781566819
10
115.45080211083662
20
-119.46348145440112
10
118.82407257302782
20
-121.2663548330781
10
121.76008988420318
20
-123.24186694620042
10
124.39330605992357
20
-125.39351596490401
10
126.88016773774977
20
-127.72451666166151
10
129.39023211590685
20
-130.23514074349575
10
132.09068810836465
20
-132.91846940765973
10
135.1305969230168
20
-135.7560367320631
10
138.62572598714132
20
-138.7136518266224
10
142.64291171052525
20
-141.73710506723802
10
147.18405850323637
20
-144.7476171836838
10
152.1722667852589
20
-147.63830733940026
10
157.45204230207997
20
-150.2762068349953
10
162.81523822240334
20
-152.51416826999227
10
168.03107670382607
20
-154.2055029538388
10
170.51301443075735
20
-154.80395046148794
10
172.87763544123416
20
-155.21808756122394
10
175.10427467321585
20
-155.43598847410362
10
177.1761709760704
20
-155.4484976042868
10
179.08107534907847
20
-155.24971553719809
10
180.81315966561755
20
-154.83735709972933
10
182.37562455823982
20
-154.2130409180728
10
183.78189423899906
20
-153.38272632674338
10
185.05276235699483
20
-152.3575716647205
10
186.21184130924806
20
-151.1549364622659
10
188.28149616241384
20
-148.31815873426314
10
191.78318118283912
20
-141.83961933319927
10
193.26464573805828
20
-138.7429120283666
10
194.53778204124987
20
-136.01509336477676
10
195.56171773132797
20
-133.712143786787
10
196.2935365054481
20
-131.73277076672466
10
196.68563171880842
20
-129.86860781500326
10
196.60763786798216
20
-128.01859880441836
10
196.31261155102982
20
-127.14820398501014
10
195.8069178893746
20
-126.35338682383318
10
195.07829147423467
20
-125.64841968027689
10
194.13230856768016
20
-125.02847663112757
10
191.6987726547915
20
-123.91923199281614
10
188.85402773660118
20
-122.62415606081537
10
187.4130694474338
20
-121.75286406268714
10
186.02894160832196
20
-120.6568368364609
10
184.74497707008572
20
-119.29126253813774
10
183.59519367724795
20
-117.6236874171516
10
182.60386885464803
20
-115.63460920681679
10
181.7854922780667
20
-113.31758306411191
10
181.14562811129804
20
-110.67807484866194
10
180.68227453542625
20
-107.7316297122124
10
180.38712799069233
20
-104.50217756089214
10
180.24650984473058
20
-101.02081837863666
10
180.24215761723332
20
-97.32479955579845
10
180.35206931919498
20
-93.45640840572003
10
180.8137754406709
20
-85.38906191535379
10
181.41794212807648
20
-77.20811783536409
10
181.9540191614054
20
-69.30035213386827
10
182.13893644946
20
-65.55936643347134
10
182.2441620447385
20
-62.010644011638014
10
182.25724105851117
20
-58.68432284474996
10
182.17188514470595
20
-55.602693566899724
10
181.98917609812332
20
-52.77878912290743
10
181.71809437909621
20
-50.21535291385794
10
181.37558772380217
20
-47.90407862340319
10
180.9852908356063
20
-45.82608460438558
10
180.15605623806758
20
-42.268022997967776
10
179.34293276290126
20
-39.351036726172566
10
178.53279804727356
20
-36.92814010770865
10
177.64752047058346
20
-34.880056129242035
10
176.5797571543987
20
-33.116662275233395
10
175.23032973125297
20
-31.5768033381614
10
173.53572770975595
20
-30.22204801302719
10
171.46312158577564
20
-29.032341823583128
10
169.00000251829627
20
-28.000000417232513
0
ARC
5
106
100
AcDbEntity
8
0
100
AcDbCircle
10
41.802420809854361
20
-108.48039196952044
30
0
40
1.9999999999999676
210
0
220
0
230
1
100
AcDbArc
50
187.64594600855537
51
269.52836054738384
0
ARC
5
107
100
AcDbEntity
8
0
100
AcDbCircle
10
41.980804176808562
20
-34.575624362393881
30
0
40
1.9999999999999987
210
0
220
0
230
1
100
AcDbArc
50
108.41492162539124
51
172.76925165255386
0
ENDSEC
0
SECTION
2
OBJECTS
0
DICTIONARY
5
C
100
AcDbDictionary
3
ACAD_GROUP
350
D
3
ACAD_MLINESTYLE
350
17
0
DICTIONARY
5
D
100
AcDbDictionary
0
DICTIONARY
5
1A
330
C
100
AcDbDictionary
0
DICTIONARY
5
17
100
AcDbDictionary
0
ENDSEC
0
EOF
